<?xml version="1.0" standalone="no"?>
<!DOCTYPE svg PUBLIC "-//W3C//DTD SVG 20010904//EN"
 "http://www.w3.org/TR/2001/REC-SVG-20010904/DTD/svg10.dtd">
<svg version="1.0" xmlns="http://www.w3.org/2000/svg"
 width="16.000000pt" height="16.000000pt" viewBox="0 0 16.000000 16.000000"
 preserveAspectRatio="xMidYMid meet">
<metadata>
Created by potrace 1.11, written by Peter Selinger 2001-2013
</metadata>
<g transform="translate(0.000000,16.000000) scale(0.004000,-0.004000)"
fill="#000000" stroke="none">
<path d="M1324 2920 c-145 -38 -278 -123 -408 -261 -182 -193 -200 -386 -53
-546 58 -63 130 -117 287 -213 216 -133 351 -242 451 -361 l42 -51 -25 -51
c-89 -180 -260 -314 -416 -324 -145 -11 -354 46 -564 152 l-128 65 -60 -90
c-34 -50 -63 -97 -67 -105 -4 -12 23 -29 108 -69 126 -60 234 -96 359 -122 99
-20 272 -15 365 10 152 42 310 142 443 280 94 99 142 177 167 271 30 116 11
182 -77 266 -29 28 -179 136 -335 240 -155 104 -301 209 -326 232 -24 24 -63
76 -87 115 l-43 73 48 77 c149 243 204 284 375 284 128 0 257 -40 512 -158 76
-35 141 -64 145 -64 8 0 123 171 123 183 0 13 -163 88 -263 122 -194 65 -428
83 -573 45z"/>
<path d="M3549 1943 c-73 -37 -169 -130 -169 -165 0 -15 11 -58 25 -96 14 -38
25 -80 25 -94 0 -29 -51 -116 -128 -218 -56 -75 -244 -270 -260 -270 -23 0
-72 174 -79 280 l-6 95 52 65 c84 107 114 152 128 192 16 46 8 68 -23 68 -42
0 -180 -49 -202 -72 -48 -52 -85 -169 -98 -315 -4 -40 -14 -85 -24 -101 -10
-16 -82 -77 -161 -137 -79 -60 -149 -112 -155 -116 -6 -5 -28 12 -57 45 l-46
53 10 97 c16 159 60 314 146 514 7 16 -10 15 -95 -4 l-70 -16 -35 -91 c-66
-173 -101 -355 -95 -486 5 -101 28 -151 99 -215 37 -35 46 -38 84 -34 84 10
271 163 372 306 25 35 47 62 48 60 2 -2 8 -37 14 -78 12 -90 54 -222 82 -262
29 -39 57 -36 128 17 132 100 334 369 425 565 66 144 152 412 140 432 -8 12
-16 10 -75 -19z"/>
</g>
</svg>
